<?xml version="1.0" encoding="UTF-8" standalone="no"?>
<!DOCTYPE svg PUBLIC "-//W3C//DTD SVG 1.1//EN" "http://www.w3.org/Graphics/SVG/1.1/DTD/svg11.dtd">
<svg width="100%" height="100%" viewBox="0 0 122 128" version="1.1" xmlns="http://www.w3.org/2000/svg" xmlns:xlink="http://www.w3.org/1999/xlink" xml:space="preserve" xmlns:serif="http://www.serif.com/" style="fill-rule:evenodd;clip-rule:evenodd;stroke-linecap:round;stroke-linejoin:round;stroke-miterlimit:1.5;">
    <g transform="matrix(1,0,0,1,-1,0)">
        <path d="M53.951,52.524C50.221,55.136 48,59.403 48,63.956C48,68.51 50.221,72.777 53.951,75.389L55.139,73.693C51.962,71.469 50.071,67.834 50.071,63.956C50.071,60.079 51.962,56.444 55.139,54.22L53.951,52.524Z" style="fill:rgb(248,142,242);"/>
    </g>
    <g transform="matrix(-1,0,0,1,123.139,0)">
        <path d="M53.951,52.524C50.221,55.136 48,59.403 48,63.956C48,68.51 50.221,72.777 53.951,75.389L55.139,73.693C51.962,71.469 50.071,67.834 50.071,63.956C50.071,60.079 51.962,56.444 55.139,54.22L53.951,52.524Z" style="fill:rgb(248,142,242);"/>
    </g>
    <g transform="matrix(1.01961,0,0,1.01961,-0.686275,-2.78877)">
        <path d="M45.874,44.839C39.059,49.611 35,57.407 35,65.727C35,74.047 39.059,81.844 45.874,86.616L48.287,83.169C42.597,79.184 39.208,72.674 39.208,65.727C39.208,58.78 42.597,52.27 48.287,48.286L45.874,44.839Z" style="fill:rgb(0,222,255);"/>
    </g>
    <g transform="matrix(-1.01961,0,0,1.01961,122.686,-2.78877)">
        <path d="M45.874,44.839C39.059,49.611 35,57.407 35,65.727C35,74.047 39.059,81.844 45.874,86.616L48.287,83.169C42.597,79.184 39.208,72.674 39.208,65.727C39.208,58.78 42.597,52.27 48.287,48.286L45.874,44.839Z" style="fill:rgb(0,222,255);"/>
    </g>
    <path d="M60.755,60L65,119L57,119L60.755,60Z" style="stroke:black;stroke-width:0.75px;"/>
    <path d="M26.012,13.032C9.709,24.447 0,43.098 0,63C0,82.902 9.709,101.553 26.012,112.968L31.818,104.676C18.22,95.155 10.123,79.6 10.123,63C10.123,46.401 18.22,30.845 31.818,21.324L26.012,13.032Z" style="fill:rgb(0,222,255);"/>
    <g transform="matrix(-1,0,0,1,121,0.739251)">
        <path d="M26.012,13.032C9.709,24.447 0,43.098 0,63C0,82.902 9.709,101.553 26.012,112.968L31.818,104.676C18.22,95.155 10.123,79.6 10.123,63C10.123,46.401 18.22,30.845 31.818,21.324L26.012,13.032Z" style="fill:rgb(0,222,255);"/>
    </g>
    <g transform="matrix(1.15027,0,-1.73472e-17,1.03715,-9.67902,-2.21914)">
        <ellipse cx="61.232" cy="63.596" rx="3.477" ry="3.857"/>
    </g>
    <g transform="matrix(1,0,0,1,1,-4)">
        <path d="M36.483,33.415C25.526,41.087 19,53.623 19,67C19,80.377 25.526,92.913 36.483,100.585L40.176,95.312C30.939,88.844 25.437,78.277 25.437,67C25.437,55.723 30.939,45.156 40.176,38.688L36.483,33.415Z" style="fill:rgb(248,142,242);"/>
    </g>
    <g transform="matrix(-1,0,0,1,121.176,-4)">
        <path d="M36.483,33.415C25.526,41.087 19,53.623 19,67C19,80.377 25.526,92.913 36.483,100.585L40.176,95.312C30.939,88.844 25.437,78.277 25.437,67C25.437,55.723 30.939,45.156 40.176,38.688L36.483,33.415Z" style="fill:rgb(248,142,242);"/>
    </g>
</svg>
